<svg viewBox="0 0 812 720" fill="#1b1e23" xmlns="http://www.w3.org/2000/svg">
<path fill="none" stroke="white" stroke-width="10" stroke-linejoin="round" stroke-linecap="round" d="M55.68176785714286,330.2053636363637C55.68176785714286,330.2053636363637,58.64988403067041,324.01003013959905,59.86765714285714,324.3132727272727C62.90122972355824,325.06867485437,60.775525451161876,367.2716490368927,65.66351785714286,368.78809090909095C69.063327075126,369.842841536225,77.26420013895134,351.92885489025906,80.15316428571428,352.63718181818183C82.38906534934911,353.1853883209583,81.62101129943827,362.37717905888536,83.37308571428571,365.2289090909091C84.56276422874232,367.16526631374126,86.06770925129003,367.4997200946808,87.88097142857144,369.1769090909091C90.82093792929784,371.89625079784906,95.4708954804124,375.3408454704376,99.15068571428569,380.18345454545454C104.34842090801543,387.0236813026729,107.92175370511843,402.29111839546465,114.28431428571426,407.7297272727273C119.02612392572141,411.7829457334021,125.25919056243947,414.1127510589512,130.70591785714288,413.6517272727273C136.53283672152443,413.15852317941994,142.3738217690464,405.6562869126886,148.09348928571427,403.81163636363635C152.9789539341525,402.23602466595383,157.5713617085184,402.4414656355212,162.58312500000002,402.2264545454545C167.95533366418948,401.99597988538505,173.36010600476897,401.97649556512124,179.3267142857143,402.6152727272728C186.31166306438854,403.3630720713096,195.15783269505343,403.6805689195327,201.86615357142855,406.95209090909094C208.71575841146478,410.29251443189526,213.9984306839663,417.09974396068054,219.89771785714288,422.68427272727274C226.02836592772593,428.48781805452785,231.041053284118,434.80979187407974,237.92927142857147,441.198C246.21249623400976,448.8799524151588,256.10513049357445,458.35328063712205,266.58655714285715,465.185090909091C277.31271635911895,472.17641825072224,291.679929477795,482.3140280679384,301.68369642857147,482.5024545454546C309.04033623269635,482.64102092064786,317.2542191957828,480.89672868883594,321.00322500000004,473.85872727272726C330.44310687682275,456.13725510476195,289.36901020746524,347.6440219000878,298.14177857142863,341.63063636363637C301.6452006434328,339.2291791791044,309.3235678143906,351.2381328197506,316.49532857142856,352.63718181818183C325.07580942304537,354.31104037930737,337.2989549205153,350.6064891945318,346.7625857142857,347.9115454545455C355.6911013089738,345.36898565549734,364.13936007708145,335.0730483064225,371.87796428571426,337.2938181818182C382.1074880167086,340.2294145153399,394.57095144098673,378.05061013012886,399.24728571428574,376.29527272727273C407.16492966752145,373.3232575201974,388.5505078425949,289.2260745004964,384.75765,240.47809090909092C380.3553063492187,183.89664626807755,365.82894403002996,66.58720207562264,375.7418678571429,56.68672727272724C377.7746035548989,54.656544361250134,381.2474102123548,54.93650960945695,383.469675,57.07554545454557C391.9628445243819,65.25062618842982,389.56652473417904,135.52214134147297,393.4514357142857,169.6533636363636C396.70866147235324,198.27000298344964,398.4492042991611,224.83018032751482,404.39915357142854,248.34418181818182C409.48199673312826,268.4314088199486,416.9560786141442,287.01990242084656,424.6846607142857,302.6590909090909C431.1019592542511,315.6448288040165,439.892188612609,319.84924391179277,445.93613571428574,336.51618181818174C458.8147891071516,372.03067471592016,452.1672832905936,499.3544477506706,470.4075321428571,516.3595454545455C477.0234746548018,522.52748481382,485.978861653135,515.2201953857938,494.2349464285714,517.9148181818181C504.87633004517926,521.3879553472533,516.5390291484913,538.9328589437157,527.7221142857143,539.1801818181818C538.6500805008613,539.4218625335869,552.6112314595812,529.5331394818473,560.5653000000001,520.3075454545454C568.8852654459695,510.65756279024583,573.5965809051738,481.2915214339827,575.6989392857143,481.72481818181814C577.4737384437468,482.0906048670734,572.4061108924309,501.88773187488187,574.7329607142858,511.24509090909083C577.1452425071608,520.9460121355501,584.8849195375317,529.8210416675032,590.5105714285714,538.7913636363636C596.1525153990702,547.7876639631315,603.5074042065962,560.4549490890844,608.542125,565.1412727272727C611.0353689990254,567.461986976951,612.1915916258188,568.5235516201786,615.3039642857143,569.0892727272727C620.9540778630308,570.116266875292,635.8673603242479,569.5508931470417,640.7413285714284,564.7524545454545C645.324692596164,560.2401168062538,640.5287878165676,544.8765544082034,644.9272285714285,542.3206363636364C649.5509908592663,539.6337847896524,662.432107591134,543.5869163404105,668.7546428571427,550.5755454545455C679.9679065738485,562.9701526774347,681.0822634610574,627.4026381029562,687.1081928571429,627.741C691.1201743511913,627.9662767299451,696.3274673507294,609.3848973222563,699.0219000000001,594.6615454545454C703.9675615932908,567.6366666265825,701.5573767517894,476.2441000508339,700.9538464285713,476.22154545454543C700.6092430350197,476.20866724425156,697.0487559992255,502.108237627044,698.6999035714285,514.7743636363637C700.3846295829821,527.6980733717955,708.2821958138331,553.3196003482745,711.2575928571429,552.9682727272727C715.0800300874474,552.5169286683104,713.7305116911265,510.16673291683935,716.7314571428572,486.83927272727277C720.1458689381737,460.29778555025837,727.9930195890141,432.8152225282837,731.5430892857144,402.2264545454545C735.687696289848,366.5149241078154,737.871606746349,320.3750060627283,738.3049285714285,285.34172727272727C738.6585129012091,256.75507946494446,736.57368201195,230.05828813942193,735.7289892857144,207.42854545454543C735.0766858407464,189.9530083111543,735.4961021433094,179.5975908193988,733.7970428571429,160.9797272727273C731.206059111148,132.5883802330274,723.6442769510577,53.7954629942957,718.6634142857142,53.93509090909088C710.6640198897559,54.159336955243404,700.6457130116663,331.7648823922544,695.1579857142857,331.7905454545454C692.4322497415924,331.80329221258665,688.7181535714285,263.2987272727274,688.7181535714285,263.2987272727274" filter="url(#drop-shadow)" stroke-dasharray="2943.093017578125,2943.093017578125"></path>
</svg>